<?xml version="1.0" encoding="UTF-8" standalone="no"?>
<!-- Created with Inkscape (http://www.inkscape.org/) -->

<svg
   width="26.458334mm"
   height="26.458334mm"
   viewBox="0 0 26.458334 26.458334"
   version="1.1"
   id="svg1"
   inkscape:version="1.3.2 (091e20e, 2023-11-25, custom)"
   sodipodi:docname="browser-startup-page-logo.svg"
   inkscape:export-filename="favicon v2.png"
   inkscape:export-xdpi="96"
   inkscape:export-ydpi="96"
   xmlns:inkscape="http://www.inkscape.org/namespaces/inkscape"
   xmlns:sodipodi="http://sodipodi.sourceforge.net/DTD/sodipodi-0.dtd"
   xmlns="http://www.w3.org/2000/svg"
   xmlns:svg="http://www.w3.org/2000/svg">
  <sodipodi:namedview
     id="namedview1"
     pagecolor="#ffffff"
     bordercolor="#666666"
     borderopacity="1.0"
     inkscape:showpageshadow="2"
     inkscape:pageopacity="0.0"
     inkscape:pagecheckerboard="0"
     inkscape:deskcolor="#d1d1d1"
     inkscape:document-units="mm"
     inkscape:zoom="5.3094837"
     inkscape:cx="18.645881"
     inkscape:cy="56.596841"
     inkscape:window-width="1920"
     inkscape:window-height="991"
     inkscape:window-x="-9"
     inkscape:window-y="-9"
     inkscape:window-maximized="1"
     inkscape:current-layer="layer1" />
  <defs
     id="defs1">
    <inkscape:path-effect
       effect="fillet_chamfer"
       id="path-effect1"
       is_visible="true"
       lpeversion="1"
       nodesatellites_param="F,0,1,1,0,3.492981,0,1 @ F,0,1,1,0,3.492981,0,1 @ F,0,1,1,0,3.492981,0,1 @ F,0,0,1,0,3.492981,0,1 | F,0,0,1,0,0,0,1 @ F,0,0,1,0,0,0,1 @ F,0,0,1,0,0,0,1 @ F,0,0,1,0,0,0,1 @ F,0,0,1,0,0,0,1 @ F,0,0,1,0,0,0,1 @ F,0,0,1,0,0,0,1 @ F,0,0,1,0,0,0,1 | F,0,0,1,0,0,0,1 @ F,0,0,1,0,0,0,1 @ F,0,0,1,0,0,0,1 @ F,0,0,1,0,0,0,1 @ F,0,0,1,0,0,0,1 @ F,0,0,1,0,0,0,1 @ F,0,0,1,0,0,0,1 @ F,0,0,1,0,0,0,1 | F,0,0,1,0,0,0,1 @ F,0,0,1,0,0,0,1 @ F,0,0,1,0,0,0,1 @ F,0,0,1,0,0,0,1 @ F,0,0,1,0,0,0,1 @ F,0,0,1,0,0,0,1 @ F,0,0,1,0,0,0,1 @ F,0,0,1,0,0,0,1 | F,0,0,1,0,0,0,1 @ F,0,0,1,0,0,0,1 @ F,0,0,1,0,0,0,1 @ F,0,0,1,0,0,0,1 @ F,0,0,1,0,0,0,1 @ F,0,0,1,0,0,0,1 @ F,0,0,1,0,0,0,1 @ F,0,0,1,0,0,0,1"
       radius="0"
       unit="px"
       method="auto"
       mode="F"
       chamfer_steps="1"
       flexible="false"
       use_knot_distance="true"
       apply_no_radius="true"
       apply_with_radius="true"
       only_selected="false"
       hide_knots="false" />
    <filter
       id="selectable_hidder_filter"
       width="1"
       height="1"
       x="0"
       y="0"
       style="color-interpolation-filters:sRGB;"
       inkscape:label="LPE boolean visibility">
      <feComposite
         id="boolops_hidder_primitive"
         result="composite1"
         operator="arithmetic"
         in2="SourceGraphic"
         in="BackgroundImage" />
    </filter>
    <inkscape:path-effect
       effect="bool_op"
       operand-path=""
       id="path-effect10"
       is_visible="true"
       lpeversion="1.2"
       operation="cut"
       swap-operands="true"
       filltype-this="from-curve"
       filter=""
       filltype-operand="from-curve" />
  </defs>
  <g
     inkscape:label="Layer 1"
     inkscape:groupmode="layer"
     id="layer1">
    <path
       style="fill:#8590ff;fill-opacity:1;stroke:none;stroke-width:0.499999;stroke-linecap:round;stroke-dasharray:none;stroke-opacity:1;paint-order:stroke fill markers"
       id="rect3"
       width="26.458332"
       height="26.458332"
       x="1.9073486e-06"
       y="0"
       rx="0"
       ry="0"
       sodipodi:type="rect"
       d="M 1.9073486e-6,0 H 26.458334 V 26.458332 H 1.9073486e-6 Z"
       inkscape:path-effect="#path-effect10"
       transform="matrix(0.80789091,0,0,0.77398931,2.5414434,2.9899329)" />
    <g
       id="g3"
       transform="translate(0.14171172,-0.09849669)">
      <g
         id="g13"
         transform="translate(0.09721525,0.21751121)">
        <rect
           style="fill:#5b69ff;fill-opacity:1;stroke:none;stroke-width:3;stroke-linecap:round;stroke-opacity:0.5;paint-order:stroke fill markers"
           id="rect2"
           width="3.5067689"
           height="3.5067689"
           x="4.3489785"
           y="7.5152483"
           rx="0.76504165"
           ry="0.76504165" />
        <path
           sodipodi:type="star"
           style="fill:#000010;fill-opacity:1;stroke:none;stroke-width:3;stroke-linecap:round;stroke-opacity:0.5;paint-order:stroke fill markers"
           id="path2"
           inkscape:flatsided="true"
           sodipodi:sides="3"
           sodipodi:cx="8.7492113"
           sodipodi:cy="5.897748"
           sodipodi:r1="0.82527161"
           sodipodi:r2="1.6505432"
           sodipodi:arg1="0.99172206"
           sodipodi:arg2="2.0389196"
           inkscape:rounded="0.15"
           inkscape:randomized="0"
           d="M 9.2008407,6.5884753 C 9.0213845,6.705812 7.9370978,6.1575889 7.9252093,5.9435069 c -0.011888,-0.214082 1.00503,-0.8789903 1.1963747,-0.782245 0.1913447,0.096745 0.2587129,1.3098766 0.079257,1.4272134 z"
           transform="matrix(0.54810388,1.7703933,-1.7703933,0.54810388,14.900498,-12.908265)" />
      </g>
    </g>
    <path
       style="fill:none;fill-opacity:1;stroke:#000010;stroke-width:0.5;stroke-linecap:round;stroke-dasharray:none;stroke-opacity:1;paint-order:stroke fill markers"
       d="m 2.2878781,21.15005 c 0,0 9.1677779,-0.09577 14.4711979,-3.01007 3.839301,-2.109751 5.112268,-5.367071 4.980205,-7.64303 C 21.629263,8.600913 18.397986,6.3432064 18.397964,6.3432722"
       id="path3"
       sodipodi:nodetypes="cssc" />
    <path
       d="M 1.3691162e-6,3.492981 V 22.965352 A 3.492981,3.492981 45 0 0 3.4929824,26.458333 l 19.4723706,0 a 3.492981,3.492981 135 0 0 3.492981,-3.492981 V 3.492981 A 3.492981,3.492981 45 0 0 22.965353,0 H 3.4929824 A 3.492981,3.492981 135 0 0 1.3691162e-6,3.492981 Z M 5.09013,3.911906 h 5.24154 c 0.77706,0 1.402498,0.625439 1.402498,1.402499 v 5.24154 c 0,0.777059 -0.625438,1.402498 -1.402498,1.402498 H 5.09013 c -0.7770596,0 -1.4024984,-0.625439 -1.4024984,-1.402498 v -5.24154 c 0,-0.77706 0.6254388,-1.402499 1.4024984,-1.402499 z m 11.036535,0 h 5.241541 c 0.777059,0 1.402498,0.625439 1.402498,1.402499 v 5.24154 c 0,0.777059 -0.625439,1.402498 -1.402498,1.402498 h -5.241541 c -0.777059,0 -1.402498,-0.625439 -1.402498,-1.402498 v -5.24154 c 0,-0.77706 0.625439,-1.402499 1.402498,-1.402499 z M 5.09013,14.49989 h 5.24154 c 0.77706,0 1.402498,0.625439 1.402498,1.402499 v 5.24154 c 0,0.77706 -0.625438,1.402498 -1.402498,1.402498 H 5.09013 c -0.7770596,0 -1.4024984,-0.625438 -1.4024984,-1.402498 v -5.24154 c 0,-0.77706 0.6254388,-1.402499 1.4024984,-1.402499 z m 11.036535,0 h 5.241541 c 0.777059,0 1.402498,0.625439 1.402498,1.402499 v 5.24154 c 0,0.77706 -0.625439,1.402498 -1.402498,1.402498 h -5.241541 c -0.777059,0 -1.402498,-0.625438 -1.402498,-1.402498 v -5.24154 c 0,-0.77706 0.625439,-1.402499 1.402498,-1.402499 z"
       style="fill:#5b69ff;stroke-width:0.499999;stroke-linecap:round;paint-order:stroke fill markers"
       id="path10"
       inkscape:path-effect="#path-effect1"
       inkscape:original-d="M 1.3691162e-6,0 V 26.458333 H 26.458334 V 0 Z M 5.09013,3.911906 h 5.24154 c 0.77706,0 1.402498,0.625439 1.402498,1.402499 v 5.24154 c 0,0.777059 -0.625438,1.402498 -1.402498,1.402498 H 5.09013 c -0.7770596,0 -1.4024984,-0.625439 -1.4024984,-1.402498 v -5.24154 c 0,-0.77706 0.6254388,-1.402499 1.4024984,-1.402499 z m 11.036535,0 h 5.241541 c 0.777059,0 1.402498,0.625439 1.402498,1.402499 v 5.24154 c 0,0.777059 -0.625439,1.402498 -1.402498,1.402498 h -5.241541 c -0.777059,0 -1.402498,-0.625439 -1.402498,-1.402498 v -5.24154 c 0,-0.77706 0.625439,-1.402499 1.402498,-1.402499 z M 5.09013,14.49989 h 5.24154 c 0.77706,0 1.402498,0.625439 1.402498,1.402499 v 5.24154 c 0,0.77706 -0.625438,1.402498 -1.402498,1.402498 H 5.09013 c -0.7770596,0 -1.4024984,-0.625438 -1.4024984,-1.402498 v -5.24154 c 0,-0.77706 0.6254388,-1.402499 1.4024984,-1.402499 z m 11.036535,0 h 5.241541 c 0.777059,0 1.402498,0.625439 1.402498,1.402499 v 5.24154 c 0,0.77706 -0.625439,1.402498 -1.402498,1.402498 h -5.241541 c -0.777059,0 -1.402498,-0.625438 -1.402498,-1.402498 v -5.24154 c 0,-0.77706 0.625439,-1.402499 1.402498,-1.402499 z" />
    <circle
       style="fill:#ffdc85;fill-opacity:1;stroke:none;stroke-width:0.499999;stroke-linecap:round;stroke-dasharray:none;stroke-opacity:1;paint-order:stroke fill markers"
       id="path11"
       cx="18.397964"
       cy="6.3432722"
       r="1.4721372" />
    <path
       sodipodi:type="star"
       style="fill:#5b69ff;fill-opacity:1;stroke:none;stroke-width:0.499999;stroke-linecap:round;stroke-dasharray:none;stroke-opacity:1;paint-order:stroke fill markers"
       id="path12"
       inkscape:flatsided="true"
       sodipodi:sides="6"
       sodipodi:cx="19.198673"
       sodipodi:cy="18.809034"
       sodipodi:r1="1.6783407"
       sodipodi:r2="0.8391704"
       sodipodi:arg1="0.7704739"
       sodipodi:arg2="1.2940727"
       inkscape:rounded="0.15"
       inkscape:randomized="0"
       d="m 20.403018,19.977957 c -0.175338,0.180652 -1.370371,0.520054 -1.614489,0.458532 -0.244119,-0.06152 -1.135565,-0.926749 -1.204345,-1.168923 -0.06878,-0.242173 0.234806,-1.446803 0.410144,-1.627455 0.175339,-0.180651 1.370372,-0.520053 1.61449,-0.458531 0.244118,0.06152 1.135565,0.926749 1.204345,1.168923 0.06878,0.242173 -0.234806,1.446803 -0.410145,1.627454 z"
       inkscape:transform-center-x="0.16996303"
       inkscape:transform-center-y="-0.18824872"
       transform="translate(0.92534626,0.88829585)" />
    <circle
       style="fill:#0d0d24;fill-opacity:1;stroke:none;stroke-width:0.645702;stroke-linecap:round;stroke-dasharray:none;stroke-opacity:1;paint-order:stroke fill markers"
       id="path13"
       cx="7.6899395"
       cy="17.639679"
       r="1.3273296" />
    <rect
       style="fill:#eaeaea;fill-opacity:1;stroke:none;stroke-width:0.499999;stroke-linecap:round;stroke-dasharray:none;stroke-opacity:1;paint-order:stroke fill markers"
       id="rect13"
       width="3.456496"
       height="1.728248"
       x="15.86545"
       y="8.7687016"
       ry="0.62617683" />
  </g>
</svg>
